<svg id="mermaid-1779262577402-k7v6ha44x" width="100%" xmlns="http://www.w3.org/2000/svg" class="classDiagram" style="max-width: 563.9453125px;" viewBox="0 0 563.9453125 910.005859375" role="graphics-document document" aria-roledescription="class"><style>#mermaid-1779262577402-k7v6ha44x{font-family:"trebuchet ms",verdana,arial,sans-serif;font-size:16px;fill:#333;}@keyframes edge-animation-frame{from{stroke-dashoffset:0;}}@keyframes dash{to{stroke-dashoffset:0;}}#mermaid-1779262577402-k7v6ha44x .edge-animation-slow{stroke-dasharray:9,5!important;stroke-dashoffset:900;animation:dash 50s linear infinite;stroke-linecap:round;}#mermaid-1779262577402-k7v6ha44x .edge-animation-fast{stroke-dasharray:9,5!important;stroke-dashoffset:900;animation:dash 20s linear infinite;stroke-linecap:round;}#mermaid-1779262577402-k7v6ha44x .error-icon{fill:#552222;}#mermaid-1779262577402-k7v6ha44x .error-text{fill:#552222;stroke:#552222;}#mermaid-1779262577402-k7v6ha44x .edge-thickness-normal{stroke-width:1px;}#mermaid-1779262577402-k7v6ha44x .edge-thickness-thick{stroke-width:3.5px;}#mermaid-1779262577402-k7v6ha44x .edge-pattern-solid{stroke-dasharray:0;}#mermaid-1779262577402-k7v6ha44x .edge-thickness-invisible{stroke-width:0;fill:none;}#mermaid-1779262577402-k7v6ha44x .edge-pattern-dashed{stroke-dasharray:3;}#mermaid-1779262577402-k7v6ha44x .edge-pattern-dotted{stroke-dasharray:2;}#mermaid-1779262577402-k7v6ha44x .marker{fill:#333333;stroke:#333333;}#mermaid-1779262577402-k7v6ha44x .marker.cross{stroke:#333333;}#mermaid-1779262577402-k7v6ha44x svg{font-family:"trebuchet ms",verdana,arial,sans-serif;font-size:16px;}#mermaid-1779262577402-k7v6ha44x p{margin:0;}#mermaid-1779262577402-k7v6ha44x g.classGroup text{fill:#9370DB;stroke:none;font-family:"trebuchet ms",verdana,arial,sans-serif;font-size:10px;}#mermaid-1779262577402-k7v6ha44x g.classGroup text .title{font-weight:bolder;}#mermaid-1779262577402-k7v6ha44x .nodeLabel,#mermaid-1779262577402-k7v6ha44x .edgeLabel{color:#131300;}#mermaid-1779262577402-k7v6ha44x .edgeLabel .label rect{fill:#ECECFF;}#mermaid-1779262577402-k7v6ha44x .label text{fill:#131300;}#mermaid-1779262577402-k7v6ha44x .labelBkg{background:#ECECFF;}#mermaid-1779262577402-k7v6ha44x .edgeLabel .label span{background:#ECECFF;}#mermaid-1779262577402-k7v6ha44x .classTitle{font-weight:bolder;}#mermaid-1779262577402-k7v6ha44x .node rect,#mermaid-1779262577402-k7v6ha44x .node circle,#mermaid-1779262577402-k7v6ha44x .node ellipse,#mermaid-1779262577402-k7v6ha44x .node polygon,#mermaid-1779262577402-k7v6ha44x .node path{fill:#ECECFF;stroke:#9370DB;stroke-width:1px;}#mermaid-1779262577402-k7v6ha44x .divider{stroke:#9370DB;stroke-width:1;}#mermaid-1779262577402-k7v6ha44x g.clickable{cursor:pointer;}#mermaid-1779262577402-k7v6ha44x g.classGroup rect{fill:#ECECFF;stroke:#9370DB;}#mermaid-1779262577402-k7v6ha44x g.classGroup line{stroke:#9370DB;stroke-width:1;}#mermaid-1779262577402-k7v6ha44x .classLabel .box{stroke:none;stroke-width:0;fill:#ECECFF;opacity:0.5;}#mermaid-1779262577402-k7v6ha44x .classLabel .label{fill:#9370DB;font-size:10px;}#mermaid-1779262577402-k7v6ha44x .relation{stroke:#333333;stroke-width:1;fill:none;}#mermaid-1779262577402-k7v6ha44x .dashed-line{stroke-dasharray:3;}#mermaid-1779262577402-k7v6ha44x .dotted-line{stroke-dasharray:1 2;}#mermaid-1779262577402-k7v6ha44x #compositionStart,#mermaid-1779262577402-k7v6ha44x .composition{fill:#333333!important;stroke:#333333!important;stroke-width:1;}#mermaid-1779262577402-k7v6ha44x #compositionEnd,#mermaid-1779262577402-k7v6ha44x .composition{fill:#333333!important;stroke:#333333!important;stroke-width:1;}#mermaid-1779262577402-k7v6ha44x #dependencyStart,#mermaid-1779262577402-k7v6ha44x .dependency{fill:#333333!important;stroke:#333333!important;stroke-width:1;}#mermaid-1779262577402-k7v6ha44x #dependencyStart,#mermaid-1779262577402-k7v6ha44x .dependency{fill:#333333!important;stroke:#333333!important;stroke-width:1;}#mermaid-1779262577402-k7v6ha44x #extensionStart,#mermaid-1779262577402-k7v6ha44x .extension{fill:transparent!important;stroke:#333333!important;stroke-width:1;}#mermaid-1779262577402-k7v6ha44x #extensionEnd,#mermaid-1779262577402-k7v6ha44x .extension{fill:transparent!important;stroke:#333333!important;stroke-width:1;}#mermaid-1779262577402-k7v6ha44x #aggregationStart,#mermaid-1779262577402-k7v6ha44x .aggregation{fill:transparent!important;stroke:#333333!important;stroke-width:1;}#mermaid-1779262577402-k7v6ha44x #aggregationEnd,#mermaid-1779262577402-k7v6ha44x .aggregation{fill:transparent!important;stroke:#333333!important;stroke-width:1;}#mermaid-1779262577402-k7v6ha44x #lollipopStart,#mermaid-1779262577402-k7v6ha44x .lollipop{fill:#ECECFF!important;stroke:#333333!important;stroke-width:1;}#mermaid-1779262577402-k7v6ha44x #lollipopEnd,#mermaid-1779262577402-k7v6ha44x .lollipop{fill:#ECECFF!important;stroke:#333333!important;stroke-width:1;}#mermaid-1779262577402-k7v6ha44x .edgeTerminals{font-size:11px;line-height:initial;}#mermaid-1779262577402-k7v6ha44x .classTitleText{text-anchor:middle;font-size:18px;fill:#333;}#mermaid-1779262577402-k7v6ha44x .label-icon{display:inline-block;height:1em;overflow:visible;vertical-align:-0.125em;}#mermaid-1779262577402-k7v6ha44x .node .label-icon path{fill:currentColor;stroke:revert;stroke-width:revert;}#mermaid-1779262577402-k7v6ha44x :root{--mermaid-font-family:"trebuchet ms",verdana,arial,sans-serif;}</style><g><defs><marker id="mermaid-1779262577402-k7v6ha44x_class-aggregationStart" class="marker aggregation class" refX="18" refY="7" markerWidth="190" markerHeight="240" orient="auto"><path d="M 18,7 L9,13 L1,7 L9,1 Z"></path></marker></defs><defs><marker id="mermaid-1779262577402-k7v6ha44x_class-aggregationEnd" class="marker aggregation class" refX="1" refY="7" markerWidth="20" markerHeight="28" orient="auto"><path d="M 18,7 L9,13 L1,7 L9,1 Z"></path></marker></defs><defs><marker id="mermaid-1779262577402-k7v6ha44x_class-extensionStart" class="marker extension class" refX="18" refY="7" markerWidth="190" markerHeight="240" orient="auto"><path d="M 1,7 L18,13 V 1 Z"></path></marker></defs><defs><marker id="mermaid-1779262577402-k7v6ha44x_class-extensionEnd" class="marker extension class" refX="1" refY="7" markerWidth="20" markerHeight="28" orient="auto"><path d="M 1,1 V 13 L18,7 Z"></path></marker></defs><defs><marker id="mermaid-1779262577402-k7v6ha44x_class-compositionStart" class="marker composition class" refX="18" refY="7" markerWidth="190" markerHeight="240" orient="auto"><path d="M 18,7 L9,13 L1,7 L9,1 Z"></path></marker></defs><defs><marker id="mermaid-1779262577402-k7v6ha44x_class-compositionEnd" class="marker composition class" refX="1" refY="7" markerWidth="20" markerHeight="28" orient="auto"><path d="M 18,7 L9,13 L1,7 L9,1 Z"></path></marker></defs><defs><marker id="mermaid-1779262577402-k7v6ha44x_class-dependencyStart" class="marker dependency class" refX="6" refY="7" markerWidth="190" markerHeight="240" orient="auto"><path d="M 5,7 L9,13 L1,7 L9,1 Z"></path></marker></defs><defs><marker id="mermaid-1779262577402-k7v6ha44x_class-dependencyEnd" class="marker dependency class" refX="13" refY="7" markerWidth="20" markerHeight="28" orient="auto"><path d="M 18,7 L9,13 L14,7 L9,1 Z"></path></marker></defs><defs><marker id="mermaid-1779262577402-k7v6ha44x_class-lollipopStart" class="marker lollipop class" refX="13" refY="7" markerWidth="190" markerHeight="240" orient="auto"><circle stroke="black" fill="transparent" cx="7" cy="7" r="6"></circle></marker></defs><defs><marker id="mermaid-1779262577402-k7v6ha44x_class-lollipopEnd" class="marker lollipop class" refX="1" refY="7" markerWidth="190" markerHeight="240" orient="auto"><circle stroke="black" fill="transparent" cx="7" cy="7" r="6"></circle></marker></defs><g class="root"><g class="clusters"></g><g class="edgePaths"><path d="M295.313,190.978L310.145,199.648C324.978,208.319,354.643,225.66,369.476,239.498C384.309,253.335,384.309,263.669,384.309,268.835L384.309,274.002" id="id_LogManager_LoggerContextFactory_1" class=" edge-thickness-normal edge-pattern-dashed relation" style="" marker-end="url(#mermaid-1779262577402-k7v6ha44x_class-dependencyEnd)"></path><path d="M151.656,206.002L151.656,212.168C151.656,218.335,151.656,230.668,151.656,255.502C151.656,280.335,151.656,317.669,151.656,355.002C151.656,392.336,151.656,429.67,157.341,453.809C163.025,477.949,174.394,488.896,180.079,494.369L185.763,499.842" id="id_LogManager_LoggerContext_2" class=" edge-thickness-normal edge-pattern-dashed relation" style="" marker-end="url(#mermaid-1779262577402-k7v6ha44x_class-dependencyEnd)"></path><path d="M72.703,206.002L67.785,212.168C62.867,218.335,53.031,230.668,48.113,255.502C43.195,280.335,43.195,317.669,43.195,355.002C43.195,392.336,43.195,429.67,43.195,467.003C43.195,504.337,43.195,541.67,43.195,579.004C43.195,616.337,43.195,653.671,49.378,677.84C55.56,702.008,67.924,713.012,74.106,718.514L80.289,724.016" id="id_LogManager_Logger_3" class=" edge-thickness-normal edge-pattern-dashed relation" style="" marker-end="url(#mermaid-1779262577402-k7v6ha44x_class-dependencyEnd)"></path><path d="M384.309,430.003L384.309,436.17C384.309,442.336,384.309,454.67,378.624,466.31C372.94,477.949,361.571,488.896,355.886,494.369L350.202,499.842" id="id_LoggerContextFactory_LoggerContext_4" class=" edge-thickness-normal edge-pattern-dashed relation" style="" marker-end="url(#mermaid-1779262577402-k7v6ha44x_class-dependencyEnd)"></path><path d="M267.982,654.004L267.982,660.171C267.982,666.338,267.982,678.671,264.3,690.181C260.618,701.691,253.253,712.378,249.571,717.721L245.889,723.064" id="id_LoggerContext_Logger_5" class=" edge-thickness-normal edge-pattern-dashed relation" style="" marker-end="url(#mermaid-1779262577402-k7v6ha44x_class-dependencyEnd)"></path></g><g class="edgeLabels"><g class="edgeLabel" transform="translate(384.30859375, 243.0017967224121)"><g class="label" transform="translate(-44.4140625, -12.000164031982422)"><foreignObject width="88.828125" height="24.000328063964844"><div style="display: table-cell; white-space: nowrap; line-height: 1.5; max-width: 200px; text-align: center;" xmlns="http://www.w3.org/1999/xhtml" class="labelBkg"><span style=";display: inline-block" class="edgeLabel "><p>delegates to</p></span></div></foreignObject></g></g><g class="edgeLabel" transform="translate(151.65625, 355.00244903564453)"><g class="label" transform="translate(-26.015625, -12.000164031982422)"><foreignObject width="52.03125" height="24.000328063964844"><div style="display: table-cell; white-space: nowrap; line-height: 1.5; max-width: 200px; text-align: center;" xmlns="http://www.w3.org/1999/xhtml" class="labelBkg"><span style=";display: inline-block" class="edgeLabel "><p>obtains</p></span></div></foreignObject></g></g><g class="edgeLabel" transform="translate(43.1953125, 467.00310134887695)"><g class="label" transform="translate(-25.734375, -12.000164031982422)"><foreignObject width="51.46875" height="24.000328063964844"><div style="display: table-cell; white-space: nowrap; line-height: 1.5; max-width: 200px; text-align: center;" xmlns="http://www.w3.org/1999/xhtml" class="labelBkg"><span style=";display: inline-block" class="edgeLabel "><p>returns</p></span></div></foreignObject></g></g><g class="edgeLabel" transform="translate(384.30859375, 467.00310134887695)"><g class="label" transform="translate(-56.34375, -12.000164031982422)"><foreignObject width="112.6875" height="24.000328063964844"><div style="display: table-cell; white-space: nowrap; line-height: 1.5; max-width: 200px; text-align: center;" xmlns="http://www.w3.org/1999/xhtml" class="labelBkg"><span style=";display: inline-block" class="edgeLabel "><p>creates/returns</p></span></div></foreignObject></g></g><g class="edgeLabel" transform="translate(267.982421875, 691.0044059753418)"><g class="label" transform="translate(-30.1171875, -12.000164031982422)"><foreignObject width="60.234375" height="24.000328063964844"><div style="display: table-cell; white-space: nowrap; line-height: 1.5; max-width: 200px; text-align: center;" xmlns="http://www.w3.org/1999/xhtml" class="labelBkg"><span style=";display: inline-block" class="edgeLabel "><p>provides</p></span></div></foreignObject></g></g></g><g class="nodes"><g class="node default " id="classId-LogManager-24" transform="translate(151.65625, 107.00081634521484)"><g class="basic label-container"><path d="M-143.65625 -99.00081634521484 L143.65625 -99.00081634521484 L143.65625 99.00081634521484 L-143.65625 99.00081634521484" stroke="none" stroke-width="0" fill="#ECECFF" style=""></path><path d="M-143.65625 -99.00081634521484 C-70.2603824257811 -99.00081634521484, 3.1354851484377946 -99.00081634521484, 143.65625 -99.00081634521484 M-143.65625 -99.00081634521484 C-68.52696212995674 -99.00081634521484, 6.602325740086513 -99.00081634521484, 143.65625 -99.00081634521484 M143.65625 -99.00081634521484 C143.65625 -20.334061870301383, 143.65625 58.33269260461208, 143.65625 99.00081634521484 M143.65625 -99.00081634521484 C143.65625 -47.83204349118905, 143.65625 3.336729362836749, 143.65625 99.00081634521484 M143.65625 99.00081634521484 C79.60589852548165 99.00081634521484, 15.555547050963298 99.00081634521484, -143.65625 99.00081634521484 M143.65625 99.00081634521484 C56.602336845734754 99.00081634521484, -30.45157630853049 99.00081634521484, -143.65625 99.00081634521484 M-143.65625 99.00081634521484 C-143.65625 26.795884595519468, -143.65625 -45.40904715417591, -143.65625 -99.00081634521484 M-143.65625 99.00081634521484 C-143.65625 54.63222047598102, -143.65625 10.2636246067472, -143.65625 -99.00081634521484" stroke="#9370DB" stroke-width="1.3" fill="none" stroke-dasharray="0 0" style=""></path></g><g class="annotation-group text" transform="translate(-32.5390625, -75.00081634521484)"><g class="label" style="" transform="translate(0,-12.000164031982422)"><foreignObject width="65.078125" height="24.000328063964844"><div xmlns="http://www.w3.org/1999/xhtml" style="display: table-cell; white-space: nowrap; line-height: 1.5; max-width: 116px; text-align: center;"><span class="nodeLabel markdown-node-label" style=""><p>«facade»</p></span></div></foreignObject></g></g><g class="label-group text" transform="translate(-44.203125, -51.00048828125)"><g class="label" style="font-weight: bolder" transform="translate(0,-12.000164031982422)"><foreignObject width="88.40625" height="24.000328063964844"><div xmlns="http://www.w3.org/1999/xhtml" style="display: table-cell; white-space: nowrap; line-height: 1.5; max-width: 140px; text-align: center;"><span class="nodeLabel markdown-node-label" style=""><p>LogManager</p></span></div></foreignObject></g></g><g class="members-group text" transform="translate(-131.65625, -3.0001602172851562)"></g><g class="methods-group text" transform="translate(-131.65625, 26.999839782714844)"><g class="label" style="text-decoration:underline;" transform="translate(0,-12.000164031982422)"><foreignObject width="171.78125" height="24.000328063964844"><div xmlns="http://www.w3.org/1999/xhtml" style="display: table-cell; white-space: nowrap; line-height: 1.5; max-width: 223px; text-align: center;"><span class="nodeLabel markdown-node-label" style=""><p>+getLogger(...) : Logger</p></span></div></foreignObject></g><g class="label" style="text-decoration:underline;" transform="translate(0,12.000164031982422)"><foreignObject width="219.109375" height="24.000328063964844"><div xmlns="http://www.w3.org/1999/xhtml" style="display: table-cell; white-space: nowrap; line-height: 1.5; max-width: 270px; text-align: center;"><span class="nodeLabel markdown-node-label" style=""><p>+getContext() : LoggerContext</p></span></div></foreignObject></g><g class="label" style="text-decoration:underline;" transform="translate(0,36.000492095947266)"><foreignObject width="88.59375" height="24.000328063964844"><div xmlns="http://www.w3.org/1999/xhtml" style="display: table-cell; white-space: nowrap; line-height: 1.5; max-width: 143px; text-align: center;"><span class="nodeLabel markdown-node-label" style=""><p>+shutdown()</p></span></div></foreignObject></g></g><g class="divider" style=""><path d="M-143.65625 -27.000160217285156 C-61.52830772367767 -27.000160217285156, 20.59963455264466 -27.000160217285156, 143.65625 -27.000160217285156 M-143.65625 -27.000160217285156 C-51.32153610159759 -27.000160217285156, 41.013177796804825 -27.000160217285156, 143.65625 -27.000160217285156" stroke="#9370DB" stroke-width="1.3" fill="none" stroke-dasharray="0 0" style=""></path></g><g class="divider" style=""><path d="M-143.65625 -3.0001602172851562 C-49.108751981311954 -3.0001602172851562, 45.43874603737609 -3.0001602172851562, 143.65625 -3.0001602172851562 M-143.65625 -3.0001602172851562 C-79.92342095421924 -3.0001602172851562, -16.190591908438478 -3.0001602172851562, 143.65625 -3.0001602172851562" stroke="#9370DB" stroke-width="1.3" fill="none" stroke-dasharray="0 0" style=""></path></g></g><g class="node default " id="classId-LoggerContextFactory-25" transform="translate(384.30859375, 355.00244903564453)"><g class="basic label-container"><path d="M-171.63671875 -75.00048828125 L171.63671875 -75.00048828125 L171.63671875 75.00048828125 L-171.63671875 75.00048828125" stroke="none" stroke-width="0" fill="#ECECFF" style=""></path><path d="M-171.63671875 -75.00048828125 C-55.30942452747655 -75.00048828125, 61.0178696950469 -75.00048828125, 171.63671875 -75.00048828125 M-171.63671875 -75.00048828125 C-59.4885406220133 -75.00048828125, 52.65963750597339 -75.00048828125, 171.63671875 -75.00048828125 M171.63671875 -75.00048828125 C171.63671875 -23.61644840049035, 171.63671875 27.767591480269303, 171.63671875 75.00048828125 M171.63671875 -75.00048828125 C171.63671875 -21.154071501034018, 171.63671875 32.692345279181964, 171.63671875 75.00048828125 M171.63671875 75.00048828125 C70.44310929392444 75.00048828125, -30.750500162151127 75.00048828125, -171.63671875 75.00048828125 M171.63671875 75.00048828125 C73.87574737921756 75.00048828125, -23.885223991564885 75.00048828125, -171.63671875 75.00048828125 M-171.63671875 75.00048828125 C-171.63671875 22.703706413255027, -171.63671875 -29.593075454739946, -171.63671875 -75.00048828125 M-171.63671875 75.00048828125 C-171.63671875 32.66580049962441, -171.63671875 -9.66888728200118, -171.63671875 -75.00048828125" stroke="#9370DB" stroke-width="1.3" fill="none" stroke-dasharray="0 0" style=""></path></g><g class="annotation-group text" transform="translate(-41.171875, -51.00048828125)"><g class="label" style="" transform="translate(0,-12.000164031982422)"><foreignObject width="82.34375" height="24.000328063964844"><div xmlns="http://www.w3.org/1999/xhtml" style="display: table-cell; white-space: nowrap; line-height: 1.5; max-width: 129px; text-align: center;"><span class="nodeLabel markdown-node-label" style=""><p>«interface»</p></span></div></foreignObject></g></g><g class="label-group text" transform="translate(-82.5390625, -27.000160217285156)"><g class="label" style="font-weight: bolder" transform="translate(0,-12.000164031982422)"><foreignObject width="165.078125" height="24.000328063964844"><div xmlns="http://www.w3.org/1999/xhtml" style="display: table-cell; white-space: nowrap; line-height: 1.5; max-width: 208px; text-align: center;"><span class="nodeLabel markdown-node-label" style=""><p>LoggerContextFactory</p></span></div></foreignObject></g></g><g class="members-group text" transform="translate(-159.63671875, 21.000167846679688)"></g><g class="methods-group text" transform="translate(-159.63671875, 51.00016784667969)"><g class="label" style="" transform="translate(0,-12.000164031982422)"><foreignObject width="236.73435974121094" height="24.000328063964844"><div xmlns="http://www.w3.org/1999/xhtml" style="display: table-cell; white-space: nowrap; line-height: 1.5; max-width: 283px; text-align: center;"><span class="nodeLabel markdown-node-label" style=""><p>+getContext(...) : LoggerContext</p></span></div></foreignObject></g></g><g class="divider" style=""><path d="M-171.63671875 -2.9998321533203125 C-68.15847530778143 -2.9998321533203125, 35.31976813443714 -2.9998321533203125, 171.63671875 -2.9998321533203125 M-171.63671875 -2.9998321533203125 C-62.06487492483423 -2.9998321533203125, 47.50696890033154 -2.9998321533203125, 171.63671875 -2.9998321533203125" stroke="#9370DB" stroke-width="1.3" fill="none" stroke-dasharray="0 0" style=""></path></g><g class="divider" style=""><path d="M-171.63671875 21.000167846679688 C-44.07815061331101 21.000167846679688, 83.48041752337798 21.000167846679688, 171.63671875 21.000167846679688 M-171.63671875 21.000167846679688 C-68.96760545297859 21.000167846679688, 33.70150784404282 21.000167846679688, 171.63671875 21.000167846679688" stroke="#9370DB" stroke-width="1.3" fill="none" stroke-dasharray="0 0" style=""></path></g></g><g class="node default " id="classId-LoggerContext-26" transform="translate(267.982421875, 579.0037536621094)"><g class="basic label-container"><path d="M-135.90625 -75.00048828125 L135.90625 -75.00048828125 L135.90625 75.00048828125 L-135.90625 75.00048828125" stroke="none" stroke-width="0" fill="#ECECFF" style=""></path><path d="M-135.90625 -75.00048828125 C-35.88964296571716 -75.00048828125, 64.12696406856568 -75.00048828125, 135.90625 -75.00048828125 M-135.90625 -75.00048828125 C-81.36395560296063 -75.00048828125, -26.821661205921274 -75.00048828125, 135.90625 -75.00048828125 M135.90625 -75.00048828125 C135.90625 -15.270112978583171, 135.90625 44.46026232408366, 135.90625 75.00048828125 M135.90625 -75.00048828125 C135.90625 -20.73723275669054, 135.90625 33.52602276786892, 135.90625 75.00048828125 M135.90625 75.00048828125 C40.298957119761894 75.00048828125, -55.30833576047621 75.00048828125, -135.90625 75.00048828125 M135.90625 75.00048828125 C35.38953658075715 75.00048828125, -65.1271768384857 75.00048828125, -135.90625 75.00048828125 M-135.90625 75.00048828125 C-135.90625 25.70416144546546, -135.90625 -23.59216539031908, -135.90625 -75.00048828125 M-135.90625 75.00048828125 C-135.90625 18.560735252820834, -135.90625 -37.87901777560833, -135.90625 -75.00048828125" stroke="#9370DB" stroke-width="1.3" fill="none" stroke-dasharray="0 0" style=""></path></g><g class="annotation-group text" transform="translate(-41.171875, -51.00048828125)"><g class="label" style="" transform="translate(0,-12.000164031982422)"><foreignObject width="82.34375" height="24.000328063964844"><div xmlns="http://www.w3.org/1999/xhtml" style="display: table-cell; white-space: nowrap; line-height: 1.5; max-width: 129px; text-align: center;"><span class="nodeLabel markdown-node-label" style=""><p>«interface»</p></span></div></foreignObject></g></g><g class="label-group text" transform="translate(-54.5, -27.000160217285156)"><g class="label" style="font-weight: bolder" transform="translate(0,-12.000164031982422)"><foreignObject width="109" height="24.000328063964844"><div xmlns="http://www.w3.org/1999/xhtml" style="display: table-cell; white-space: nowrap; line-height: 1.5; max-width: 155px; text-align: center;"><span class="nodeLabel markdown-node-label" style=""><p>LoggerContext</p></span></div></foreignObject></g></g><g class="members-group text" transform="translate(-123.90625, 21.000167846679688)"></g><g class="methods-group text" transform="translate(-123.90625, 51.00016784667969)"><g class="label" style="" transform="translate(0,-12.000164031982422)"><foreignObject width="193.3125" height="24.000328063964844"><div xmlns="http://www.w3.org/1999/xhtml" style="display: table-cell; white-space: nowrap; line-height: 1.5; max-width: 250px; text-align: center;"><span class="nodeLabel markdown-node-label" style=""><p>+getLogger(name) : Logger</p></span></div></foreignObject></g></g><g class="divider" style=""><path d="M-135.90625 -2.9998321533203125 C-39.53071215392029 -2.9998321533203125, 56.84482569215942 -2.9998321533203125, 135.90625 -2.9998321533203125 M-135.90625 -2.9998321533203125 C-77.5255338270197 -2.9998321533203125, -19.1448176540394 -2.9998321533203125, 135.90625 -2.9998321533203125" stroke="#9370DB" stroke-width="1.3" fill="none" stroke-dasharray="0 0" style=""></path></g><g class="divider" style=""><path d="M-135.90625 21.000167846679688 C-70.33202917790966 21.000167846679688, -4.757808355819321 21.000167846679688, 135.90625 21.000167846679688 M-135.90625 21.000167846679688 C-80.86490273942071 21.000167846679688, -25.823555478841428 21.000167846679688, 135.90625 21.000167846679688" stroke="#9370DB" stroke-width="1.3" fill="none" stroke-dasharray="0 0" style=""></path></g></g><g class="node default " id="classId-Logger-27" transform="translate(182.529296875, 815.0052261352539)"><g class="basic label-container"><path d="M-121.90625 -87.00065612792969 L121.90625 -87.00065612792969 L121.90625 87.00065612792969 L-121.90625 87.00065612792969" stroke="none" stroke-width="0" fill="#ECECFF" style=""></path><path d="M-121.90625 -87.00065612792969 C-55.70671752534757 -87.00065612792969, 10.492814949304858 -87.00065612792969, 121.90625 -87.00065612792969 M-121.90625 -87.00065612792969 C-49.348177273552466 -87.00065612792969, 23.20989545289507 -87.00065612792969, 121.90625 -87.00065612792969 M121.90625 -87.00065612792969 C121.90625 -25.247894024557652, 121.90625 36.50486807881438, 121.90625 87.00065612792969 M121.90625 -87.00065612792969 C121.90625 -29.623741180381337, 121.90625 27.753173767167013, 121.90625 87.00065612792969 M121.90625 87.00065612792969 C59.8278968080436 87.00065612792969, -2.2504563839128053 87.00065612792969, -121.90625 87.00065612792969 M121.90625 87.00065612792969 C38.262996180018746 87.00065612792969, -45.38025763996251 87.00065612792969, -121.90625 87.00065612792969 M-121.90625 87.00065612792969 C-121.90625 31.1952803915188, -121.90625 -24.610095344892088, -121.90625 -87.00065612792969 M-121.90625 87.00065612792969 C-121.90625 38.658317459223944, -121.90625 -9.684021209481799, -121.90625 -87.00065612792969" stroke="#9370DB" stroke-width="1.3" fill="none" stroke-dasharray="0 0" style=""></path></g><g class="annotation-group text" transform="translate(-41.171875, -63.00065612792969)"><g class="label" style="" transform="translate(0,-12.000164031982422)"><foreignObject width="82.34375" height="24.000328063964844"><div xmlns="http://www.w3.org/1999/xhtml" style="display: table-cell; white-space: nowrap; line-height: 1.5; max-width: 129px; text-align: center;"><span class="nodeLabel markdown-node-label" style=""><p>«interface»</p></span></div></foreignObject></g></g><g class="label-group text" transform="translate(-25, -39.000328063964844)"><g class="label" style="font-weight: bolder" transform="translate(0,-12.000164031982422)"><foreignObject width="50" height="24.000328063964844"><div xmlns="http://www.w3.org/1999/xhtml" style="display: table-cell; white-space: nowrap; line-height: 1.5; max-width: 100px; text-align: center;"><span class="nodeLabel markdown-node-label" style=""><p>Logger</p></span></div></foreignObject></g></g><g class="members-group text" transform="translate(-109.90625, 9)"></g><g class="methods-group text" transform="translate(-109.90625, 39)"><g class="label" style="" transform="translate(0,-12.000164031982422)"><foreignObject width="170.46875" height="24.000328063964844"><div xmlns="http://www.w3.org/1999/xhtml" style="display: table-cell; white-space: nowrap; line-height: 1.5; max-width: 227px; text-align: center;"><span class="nodeLabel markdown-node-label" style=""><p>+info(message, params)</p></span></div></foreignObject></g><g class="label" style="" transform="translate(0,12.000164031982422)"><foreignObject width="178.640625" height="24.000328063964844"><div xmlns="http://www.w3.org/1999/xhtml" style="display: table-cell; white-space: nowrap; line-height: 1.5; max-width: 235px; text-align: center;"><span class="nodeLabel markdown-node-label" style=""><p>+error(message, params)</p></span></div></foreignObject></g></g><g class="divider" style=""><path d="M-121.90625 -15 C-57.9836141936335 -15, 5.939021612733001 -15, 121.90625 -15 M-121.90625 -15 C-58.2094350397582 -15, 5.487379920483605 -15, 121.90625 -15" stroke="#9370DB" stroke-width="1.3" fill="none" stroke-dasharray="0 0" style=""></path></g><g class="divider" style=""><path d="M-121.90625 9 C-63.97832059861502 9, -6.0503911972300415 9, 121.90625 9 M-121.90625 9 C-72.52769380010182 9, -23.149137600203616 9, 121.90625 9" stroke="#9370DB" stroke-width="1.3" fill="none" stroke-dasharray="0 0" style=""></path></g></g></g></g></g></svg>